<mxfile host="app.diagrams.net" modified="2020-10-29T02:30:59.240Z" agent="5.0 (Macintosh; Intel Mac OS X 10_14_6) AppleWebKit/537.36 (KHTML, like Gecko) Chrome/78.0.3904.97 Safari/537.36" etag="JofbEpwGaP86BaZkFDLq" version="13.8.6" type="github">
  <diagram id="prtHgNgQTEPvFCAcTncT" name="Page-1">
    <mxGraphModel dx="946" dy="591" grid="1" gridSize="10" guides="1" tooltips="1" connect="1" arrows="1" fold="1" page="1" pageScale="1" pageWidth="827" pageHeight="1169" math="0" shadow="0">
      <root>
        <mxCell id="0" />
        <mxCell id="1" parent="0" />
        <mxCell id="dNxyNK7c78bLwvsdeMH5-11" value="scheduler" style="swimlane;html=1;startSize=20;horizontal=1;containerType=tree;glass=0;" parent="1" vertex="1">
          <mxGeometry x="280" y="80" width="360" height="170" as="geometry" />
        </mxCell>
        <mxCell id="DKSQyU70Ulr9MfPjKsRb-8" style="edgeStyle=orthogonalEdgeStyle;rounded=0;orthogonalLoop=1;jettySize=auto;html=1;exitX=0.5;exitY=1;exitDx=0;exitDy=0;entryX=0.5;entryY=0;entryDx=0;entryDy=0;" edge="1" parent="dNxyNK7c78bLwvsdeMH5-11" source="DKSQyU70Ulr9MfPjKsRb-2" target="DKSQyU70Ulr9MfPjKsRb-4">
          <mxGeometry relative="1" as="geometry" />
        </mxCell>
        <mxCell id="DKSQyU70Ulr9MfPjKsRb-13" style="edgeStyle=orthogonalEdgeStyle;rounded=0;orthogonalLoop=1;jettySize=auto;html=1;exitX=1;exitY=0.5;exitDx=0;exitDy=0;entryX=0.5;entryY=0;entryDx=0;entryDy=0;" edge="1" parent="dNxyNK7c78bLwvsdeMH5-11" source="DKSQyU70Ulr9MfPjKsRb-2">
          <mxGeometry relative="1" as="geometry">
            <mxPoint x="300" y="100" as="targetPoint" />
          </mxGeometry>
        </mxCell>
        <mxCell id="DKSQyU70Ulr9MfPjKsRb-17" style="edgeStyle=orthogonalEdgeStyle;rounded=0;orthogonalLoop=1;jettySize=auto;html=1;exitX=0;exitY=0.5;exitDx=0;exitDy=0;entryX=0.5;entryY=0;entryDx=0;entryDy=0;" edge="1" parent="dNxyNK7c78bLwvsdeMH5-11" source="DKSQyU70Ulr9MfPjKsRb-2" target="DKSQyU70Ulr9MfPjKsRb-3">
          <mxGeometry relative="1" as="geometry" />
        </mxCell>
        <mxCell id="DKSQyU70Ulr9MfPjKsRb-2" value="scheduler" style="rounded=0;whiteSpace=wrap;html=1;" vertex="1" parent="dNxyNK7c78bLwvsdeMH5-11">
          <mxGeometry x="150" y="40" width="77.5" height="30" as="geometry" />
        </mxCell>
        <mxCell id="DKSQyU70Ulr9MfPjKsRb-3" value="algorithm" style="rounded=0;whiteSpace=wrap;html=1;" vertex="1" parent="dNxyNK7c78bLwvsdeMH5-11">
          <mxGeometry x="40" y="100" width="80" height="30" as="geometry" />
        </mxCell>
        <mxCell id="DKSQyU70Ulr9MfPjKsRb-4" value="cache" style="rounded=0;whiteSpace=wrap;html=1;" vertex="1" parent="dNxyNK7c78bLwvsdeMH5-11">
          <mxGeometry x="150" y="100" width="80" height="30" as="geometry" />
        </mxCell>
        <mxCell id="DKSQyU70Ulr9MfPjKsRb-5" value="factory" style="rounded=0;whiteSpace=wrap;html=1;" vertex="1" parent="dNxyNK7c78bLwvsdeMH5-11">
          <mxGeometry x="260" y="100" width="80" height="30" as="geometry" />
        </mxCell>
      </root>
    </mxGraphModel>
  </diagram>
</mxfile>
